<?xml version="1.0" encoding="UTF-8"?>
<svg xmlns="http://www.w3.org/2000/svg" xmlns:xlink="http://www.w3.org/1999/xlink" width="16" height="15.264666" viewBox="0 0 16 15.264666">
<path fill-rule="nonzero" fill-opacity="1" fill="#acb0d0" d="M 6.523438 13.785156 L 9.449219 13.785156 C 9.449219 14.195312 9.308594 14.546875 9.027344 14.835938 C 8.746094 15.117188 8.398438 15.257812 7.988281 15.257812 C 7.574219 15.257812 7.230469 15.117188 6.949219 14.835938 C 6.667969 14.546875 6.523438 14.195312 6.523438 13.785156 M 14.523438 12.324219 L 14.523438 13.070312 L 1.449219 13.070312 L 1.449219 12.324219 L 2.910156 10.894531 L 2.910156 6.53125 C 2.910156 5.398438 3.246094 4.382812 3.917969 3.488281 C 4.589844 2.585938 5.457031 1.976562 6.523438 1.660156 L 6.523438 1.421875 C 6.523438 1.039062 6.667969 0.707031 6.949219 0.425781 C 7.230469 0.136719 7.574219 -0.0078125 7.988281 -0.0078125 C 8.398438 -0.0078125 8.746094 0.136719 9.027344 0.425781 C 9.308594 0.707031 9.449219 1.039062 9.449219 1.421875 L 9.449219 1.660156 C 10.515625 1.976562 11.386719 2.585938 12.058594 3.488281 C 12.726562 4.382812 13.0625 5.398438 13.0625 6.53125 L 13.0625 10.894531 Z M 11.636719 6.53125 C 11.636719 5.875 11.46875 5.269531 11.136719 4.714844 C 10.804688 4.15625 10.359375 3.71875 9.804688 3.394531 C 9.25 3.058594 8.644531 2.894531 7.988281 2.894531 C 7.332031 2.894531 6.722656 3.058594 6.167969 3.394531 C 5.613281 3.71875 5.167969 4.15625 4.839844 4.714844 C 4.507812 5.269531 4.339844 5.875 4.339844 6.53125 L 4.339844 11.609375 L 11.636719 11.609375 Z M 13.605469 0.847656 L 12.589844 1.863281 C 13.199219 2.480469 13.675781 3.191406 14.015625 4 C 14.355469 4.808594 14.523438 5.652344 14.523438 6.53125 L 15.988281 6.53125 C 15.988281 5.464844 15.78125 4.4375 15.371094 3.457031 C 14.964844 2.46875 14.378906 1.597656 13.605469 0.847656 M -0.0117188 6.53125 L 1.449219 6.53125 C 1.449219 5.652344 1.617188 4.808594 1.957031 4 C 2.296875 3.191406 2.773438 2.480469 3.386719 1.867188 L 2.371094 0.847656 C 1.597656 1.601562 1.007812 2.46875 0.605469 3.457031 C 0.191406 4.4375 -0.0117188 5.464844 -0.0117188 6.53125 "/>
</svg>
