<?xml version="1.0" encoding="UTF-8"?>
<svg xmlns="http://www.w3.org/2000/svg" xmlns:xlink="http://www.w3.org/1999/xlink" width="16" height="16" viewBox="0 0 16 16">
<path fill-rule="nonzero" fill="#acb0d0" fill-opacity="1" d="M 5.316406 14.460938 L 8.386719 14.460938 C 8.386719 14.890625 8.230469 15.25 7.929688 15.546875 C 7.632812 15.847656 7.273438 16 6.847656 16 C 6.421875 16 6.058594 15.847656 5.757812 15.546875 C 5.464844 15.25 5.316406 14.890625 5.316406 14.460938 M 13.691406 12.925781 L 13.691406 13.710938 L 0 13.710938 L 0 12.925781 L 1.523438 11.433594 L 1.523438 6.863281 C 1.523438 5.667969 1.871094 4.601562 2.566406 3.664062 C 3.253906 2.726562 4.171875 2.085938 5.316406 1.753906 L 5.316406 1.503906 C 5.316406 1.105469 5.464844 0.753906 5.757812 0.453125 C 6.058594 0.152344 6.421875 0 6.847656 0 C 7.273438 0 7.632812 0.152344 7.929688 0.453125 C 8.222656 0.757812 8.375 1.105469 8.386719 1.503906 L 8.386719 1.753906 C 9.519531 2.085938 10.433594 2.726562 11.128906 3.664062 C 11.820312 4.601562 12.167969 5.667969 12.167969 6.863281 L 12.167969 11.433594 Z M 10.667969 6.863281 C 10.667969 6.148438 10.496094 5.496094 10.148438 4.914062 C 9.800781 4.332031 9.335938 3.875 8.753906 3.539062 C 8.171875 3.203125 7.535156 3.039062 6.839844 3.042969 C 6.148438 3.046875 5.511719 3.214844 4.933594 3.546875 C 4.355469 3.875 3.894531 4.335938 3.546875 4.921875 C 3.199219 5.503906 3.027344 6.152344 3.027344 6.863281 L 3.027344 12.183594 L 10.667969 12.183594 Z M 10.667969 6.863281 "/>
</svg>
